<svg xmlns="http://www.w3.org/2000/svg" width="367.957" height="291.917"><g data-name="Group 594"><g data-name="Group 592"><path data-name="Path 678" d="M9.04 281.291l-.221-.382-7.417-12.514 1.073-.107 48.36-4.654 311.651-26.055.12 1.368-311.644 26.054-47.28 4.547 6.1 10.281 357.59-36.765.134 1.368z" fill="#3d3e40"/></g><g data-name="Group 593"><path data-name="Path 679" d="M60.117 269.226l-.121-1.368 306.252-27.651.121 1.368z" fill="#3d3e40"/></g></g><g data-name="Group 597"><g data-name="Group 595"><path data-name="Path 680" d="M366.321 45.169L7.068 16.881l.557-4.789.657.054L367.34 41.118l-.107 1.368L8.835 13.568 8.6 15.62l357.828 28.183z" fill="#3d3e40"/></g><g data-name="Group 596"><path data-name="Path 681" d="M93.25 277.277l-52.082 8.007-35.2-16.739V22.176L38.159 5.437l55.087 8.021z" fill="#fff"/></g></g><g data-name="Group 598"><path data-name="Path 682" d="M25.61 19.171L48.277 7.548l-2.532-4.043-17.6 11.623z" fill="#464749"/></g><g data-name="Group 599"><path data-name="Path 683" d="M31.06 263.394l18.213 10.725v3.434L22.459 265.97z" fill="#464749"/></g><g data-name="Group 600"><path data-name="Path 684" d="M22.46 265.969l8.6-2.575V12.733l-8.6 2.146z" fill="#464749"/></g><g data-name="Group 601"><path data-name="Path 685" d="M55.951 291.262L55.751.784l3.712 3.365.192 283.235z" fill="#464749"/></g><g data-name="Group 603"><g data-name="Group 602"><path data-name="Path 686" d="M36.599 262.294l-.01-239.51 11.017-6.421v-1.5l-13.447 6.271.01 242.763 13.437 6.255v-1.576z" fill="#333"/></g></g><g data-name="Group 604"><path data-name="Path 687" d="M9.876 21.436c-2-4.883 35.306-23.892 37.3-19 .611 1.5-1.291 280.274-1.291 280.274l-38.41-16.7z" fill="#fff" opacity=".84"/></g><g data-name="Group 605"><path data-name="Path 688" d="M9.796 30.471l.01 225.422 27.356 15.512-29.829-13.878-.011-228.734 27.551-11.914z" fill="#464749"/></g><g data-name="Group 606"><path data-name="Path 689" d="M41.987 9.013L9.875 24.156l.007 237.524 32.311 17.194zm.11-9.01l.728 291.914-41.136-24.228L5.15 17.948z" fill="#464749"/></g><g data-name="Group 607"><path data-name="Path 690" d="M.68 269.775V17.025l7.551-4.189v266.031z" fill="#fff"/><path data-name="Path 691" d="M8.914 280.77l-8.918-10.747v-253.4l.35-.206 8.564-4.752zm-7.547-11.242l6.174 7.43V13.998l-6.174 3.427z" fill="#3b3c3e"/></g><g data-name="Group 608"><path data-name="Path 692" d="M355.39 239.116V45.409l12.043-4.247V243.75z" fill="#fff"/><path data-name="Path 693" d="M367.957 244.509l-13.089-5.034V45.039l.343-.124 12.746-4.491zm-12.046-5.762l11 4.237V41.894l-11 3.887z" fill="#3d3e40"/></g><g data-name="Group 614"><g data-name="Group 609"><path data-name="Path 694" d="M58.623 286.857L58.051 4.72l7.427-1.994.207 286.992z" fill="#464749"/></g><g data-name="Group 610"><path data-name="Path 695" d="M84.01 284.483L83.824 10.03l5.332-2.607L89.35 287z" fill="#464749"/></g><g data-name="Group 611"><path data-name="Path 696" d="M80.413 287.527l-.2-281.292 3.6 3.662.186 274.766z" fill="#464749"/></g><g data-name="Group 612"><path data-name="Path 697" d="M77.073 287.858l-8.651 1.919V3.144l8.651 2.376z" fill="#464749"/></g><g data-name="Group 613"><path data-name="Path 698" d="M99.536 285.605l-6.862.536V8.154l6.862 1.988z" fill="#464749"/></g></g><g data-name="Group 615"><path data-name="Path 699" d="M50.698 291.631l-7.875.286L42.097 0l8.6.429z" fill="#464749"/></g></svg>