<svg xmlns="http://www.w3.org/2000/svg" width="214" height="214"><g transform="translate(-271 -5859)"><circle data-name="Ellipse 19" cx="107" cy="107" r="107" transform="translate(271 5859)" fill="#c7e1f3"/><g data-name="Group 197" transform="translate(-29.833 851)"><circle data-name="Ellipse 17" cx="49.298" cy="49.298" r="49.298" transform="translate(360.514 5079.721)" fill="#8fc6ed" style="mix-blend-mode:multiply;isolation:isolate"/><path data-name="Path 20" d="M438.013 5027.653a9.293 9.293 0 00-9.288 9.29h-3.981a1.327 1.327 0 00-1.245.912l-1.908 5.764H400.738a1.329 1.329 0 00-1.2 1.328v95.5a1.328 1.328 0 001.328 1.328h74.311a1.327 1.327 0 001.328-1.328v-95.503a1.327 1.327 0 00-1.328-1.328H454.48l-1.908-5.764a1.324 1.324 0 00-1.284-.912h-3.981a9.309 9.309 0 00-9.294-9.287zm0 2.653a6.614 6.614 0 016.635 6.636v1.326a1.329 1.329 0 001.328 1.328h4.354l3.111 9.29h-30.808l3.109-9.29h4.313a1.327 1.327 0 001.328-1.328v-1.326a6.611 6.611 0 016.63-6.636zm-35.828 15.966h18.495l-1.162 3.525a1.327 1.327 0 00.846 1.675 1.306 1.306 0 00.4.067h34.5a1.328 1.328 0 001.352-1.3 1.355 1.355 0 00-.067-.44l-1.16-3.525h18.453v92.849h-71.653z" fill="#040505"/><g data-name="Group 37" fill="#040505"><path data-name="Path 21" d="M417.588 5061.372a1.327 1.327 0 00-.038 2.653h39.849a1.327 1.327 0 10.036-2.653.127.127 0 00-.036 0z"/><path data-name="Path 22" d="M417.381 5074.681a1.335 1.335 0 10.29 2.653h15.924a1.327 1.327 0 00.038-2.653h-15.962a1.359 1.359 0 00-.29 0z"/><path data-name="Path 23" d="M417.339 5087.953a1.333 1.333 0 10.249 2.653h39.808a1.327 1.327 0 00.036-2.653.129.129 0 00-.036 0h-39.809a1.191 1.191 0 00-.248 0z"/></g><g data-name="Group 38" fill="#040505"><path data-name="Path 24" d="M464.107 5110.076l-70.459 52.087-1.923-2.76-18.743-26.889a3.074 3.074 0 00-4.273-.763l-11.087 7.729-10.077.573c-.029 0-.057.01-.085.014a1.267 1.267 0 00-.138.021c-.04.01-.078.024-.117.038a.77.77 0 00-.114.043 1.056 1.056 0 00-.123.067c-.024.016-.05.026-.073.041l-.021.017a1.054 1.054 0 00-.105.092c-.028.024-.057.048-.081.074a1.027 1.027 0 00-.074.1c-.024.033-.052.064-.073.1s-.036.072-.053.109a1 1 0 00-.052.107c-.014.04-.023.081-.033.121s-.022.076-.029.116-.007.074-.01.112-.007.091-.007.138a.112.112 0 010 .024c0 .029.01.057.014.085a1.186 1.186 0 00.021.136c.01.041.024.079.038.119s.026.076.043.112a1.106 1.106 0 00.069.126c.014.022.024.048.04.071l2.414 3.461-9.481 6.609a3.073 3.073 0 00-.763 4.275l20.351 29.2a3.075 3.075 0 004.275.765l26.229-18.293 4.454-3.1 70.459-52.087 2.527 3.625a1.26 1.26 0 102.067-1.44l-3.247-4.66a1.258 1.258 0 00-1.76-.315zm-114.165 32.364l3.739-.212-2.617 1.825zm11.23 41.691l-20.352-29.2a.55.55 0 01.136-.765l17.813-12.416 11.38-7.931a.549.549 0 01.765.136l18.742 26.887 1.925 2.76-3.42 2.384-26.225 18.283a.551.551 0 01-.764-.14z"/><path data-name="Path 25" d="M358.857 5148.731a12.57 12.57 0 1017.5 3.123 12.584 12.584 0 00-17.5-3.123zm12.936 18.559a10.052 10.052 0 112.5-13.994 10.065 10.065 0 01-2.5 13.993z"/><path data-name="Path 26" d="M362.091 5153.37a6.915 6.915 0 109.628 1.719 6.924 6.924 0 00-9.628-1.719zm6.467 9.279a4.4 4.4 0 111.093-6.12 4.4 4.4 0 01-1.093 6.12z"/></g></g></g></svg>