<svg xmlns="http://www.w3.org/2000/svg" width="214" height="214"><g transform="translate(-690 -6339)"><circle data-name="Ellipse 24" cx="107" cy="107" r="107" transform="translate(690 6339)" fill="#c7e1f3"/><g data-name="Group 208"><g data-name="Group 199"><g data-name="Group 105" fill="#8fc6ed"><path data-name="Path 100" d="M778.514 6380.836s-24.392 21.462-48.9 21.462c0 21.1.123 41.708 9.146 57.684 9.269 16.341 27.318 27.805 39.758 30.61 12.316-3.171 29.634-14.756 38.78-30.733s10.123-36.341 10.123-57.562c-24.521.001-48.907-21.461-48.907-21.461z"/><path data-name="Path 101" d="M778.524 6491.388l-.181-.04c-12.928-2.916-30.906-14.494-40.259-30.983-9.245-16.368-9.245-37.565-9.245-58.066v-.77h.773c23.931 0 48.15-21.057 48.392-21.269l.509-.45.511.45c.242.212 24.462 21.269 48.394 21.269h.773v.773c0 20.284-.79 41.466-10.225 57.947-9.252 16.161-26.753 27.878-39.259 31.1zm-48.136-88.323c0 20.061.113 40.726 9.044 56.538 8.988 15.847 26.792 27.351 39.074 30.2 12.178-3.205 29.126-14.61 38.12-30.321 9.131-15.946 10-36.572 10.022-56.412-22.311-.405-44.513-18.19-48.131-21.215-3.623 3.022-25.823 20.805-48.129 21.21z"/></g><g data-name="Group 108"><g data-name="Group 106" fill="#c7e1f3"><path data-name="Path 102" d="M840.967 6435.785H719.191s7.293-7.161 12.551-7.161 6.452 2.714 9.56 2.714c4.674 0 8.3-17.335 20.484-17.335 19.227 0 29.407 15.588 38.963 15.588 6.04 0 7.474-4.123 12.254-4.123 10.037.001 27.964 10.317 27.964 10.317z"/><path data-name="Path 103" d="M843.926 6436.574H717.258l1.378-1.353c.309-.3 7.588-7.388 13.1-7.388a12.651 12.651 0 016.467 1.709 6.426 6.426 0 003.094 1.005c1.355 0 3.017-2.576 4.775-5.3 3.271-5.077 7.751-12.03 15.709-12.03 11.513 0 19.893 5.5 26.625 9.924 4.627 3.039 8.624 5.662 12.34 5.662a11.4 11.4 0 006.486-2.126 10.485 10.485 0 015.766-1.995c10.131 0 27.619 10 28.358 10.42zm-122.683-1.58h116.623c-5.362-2.83-17.443-8.735-24.863-8.735a8.968 8.968 0 00-4.948 1.766 12.877 12.877 0 01-7.3 2.356c-4.188 0-8.368-2.745-13.209-5.923-6.556-4.306-14.716-9.666-25.756-9.666-7.1 0-11.136 6.269-14.38 11.306-2.171 3.368-3.886 6.029-6.1 6.029a7.87 7.87 0 01-3.824-1.18 10.971 10.971 0 00-5.738-1.534c-3.52 0-8.159 3.563-10.505 5.582z"/></g><g data-name="Group 107"><path data-name="Path 104" d="M847.338 6432.581H725.561s7.293-7.163 12.55-7.163 6.454 2.716 9.56 2.716c4.676 0 8.3-17.335 20.486-17.335 19.225 0 29.405 15.587 38.963 15.587 6.039 0 7.472-4.121 12.252-4.121 10.038-.001 27.966 10.316 27.966 10.316z" fill="#fff"/></g></g><g data-name="Group 113"><g data-name="Group 109"><path data-name="Path 105" d="M831.192 6514.006a40.556 40.556 0 1140.557-40.557 40.6 40.6 0 01-40.557 40.557zm0-77.846a37.29 37.29 0 1037.291 37.289 37.331 37.331 0 00-37.291-37.289z" fill="#040505"/></g><g data-name="Group 110"><path data-name="Path 106" d="M817.613 6471.128a12.54 12.54 0 01-8.506-3.346l2.366-2.252c.212.22 5.287 5.284 13.318-.217l1.844 2.694a15.874 15.874 0 01-9.022 3.121z" fill="#040505"/></g><g data-name="Group 111"><path data-name="Path 107" d="M845.711 6471.128a12.53 12.53 0 01-8.506-3.346l2.363-2.252c.213.218 5.291 5.287 13.319-.217l1.845 2.694a15.874 15.874 0 01-9.021 3.121z" fill="#040505"/></g><g data-name="Group 112"><path data-name="Path 108" d="M832.734 6496.178a31.872 31.872 0 01-16.736-5l1.89-2.664c.578.407 14.276 9.847 28.674-.015l1.844 2.692a27.262 27.262 0 01-15.672 4.987z" fill="#040505"/></g></g></g></g></g></svg>