<svg xmlns="http://www.w3.org/2000/svg" width="214" height="214"><g transform="translate(-240 -5464)"><circle data-name="Ellipse 20" cx="107" cy="107" r="107" transform="translate(240 5464)" fill="#b54633"/><g data-name="Group 196"><path data-name="Path 91" d="M244.741 5598.018h203.47s-12.186-11.966-20.971-11.966-10.782 4.536-15.975 4.536c-7.81 0-13.859-28.965-34.227-28.965-32.124 0-49.133 26.045-65.1 26.045-10.09 0-12.487-6.888-20.474-6.888-16.769 0-46.723 17.238-46.723 17.238z" fill="#e1b7a7"/><g data-name="Group 103"><g data-name="Group 100"><path data-name="Path 93" d="M381.186 5582.42l.044.395-.454.129c-7.568 9.573-17.648 22.3-25.935 32.69l24.46.16 11.085-3.139.02.059 14.627-4.145-14.1-38.487c-1.682 2.136-5.24 6.64-9.748 12.338" fill="#1a1818"/></g><path data-name="Path 94" d="M375.557 5528.092l5.362 51.758 9.941-9.976z" fill="#1a1818"/><path data-name="Path 95" d="M367.998 5507.453h-.014l-83.5 23.651 4.274 11.67 21.774-6.169 18.168 34.069-5.869-37.553 17.616-4.991 20.053 33.539-7.7-37.037 19.464-5.514z" fill="#1a1818"/><g data-name="Group 101"><path data-name="Path 96" d="M346.045 5592.778l-19.837 5.62a7551.393 7551.393 0 01-13.492 16.958l10.888.072 33.507-33.632-7.664-12.76c-1.564 1.972-3.586 4.539-5.926 7.5z" fill="#1a1818"/></g><path data-name="Path 97" d="M288.807 5542.916l-14.449 4.092 8.3 22.647 16.932 2.9 4.064 10.888-12.542 10.3 8.066 21.525 3.3.022 20.817-20.895-34.488-51.488z" fill="#1a1818"/><g data-name="Group 102"><path data-name="Path 98" d="M376.689 5584.099l-15.549 4.4-2.711-4.508c-7.664 9.693-17.257 21.8-24.995 31.5l11.9.077z" fill="#1a1818"/></g><path data-name="Path 99" d="M343.194 5574.42l5.915-5.939-9.231-15.362z" fill="#1a1818"/></g></g></g></svg>