<svg xmlns="http://www.w3.org/2000/svg" width="214" height="214"><g transform="translate(-977 -6064)"><circle data-name="Ellipse 23" cx="107" cy="107" r="107" transform="translate(977 6064)" fill="#b54633"/><g data-name="Group 207"><g data-name="Group 198"><g data-name="Group 115"><path data-name="Path 109" d="M1075.387 6203.609v-12.921c-9.112-.408-17.952-2.856-23.122-5.847l4.082-15.914a48.019 48.019 0 0022.576 5.985c7.753 0 13.056-2.993 13.056-8.432 0-5.17-4.352-8.434-14.415-11.834-14.553-4.9-24.482-11.7-24.482-24.89 0-11.968 8.432-21.353 22.985-24.208v-12.923h13.329v11.97c9.112.408 15.232 2.312 19.722 4.488l-3.946 15.37c-3.535-1.5-9.793-4.626-19.585-4.626-8.839 0-11.7 3.808-11.7 7.617 0 4.488 4.761 7.346 16.32 11.7 16.187 5.712 22.714 13.193 22.714 25.434 0 12.1-8.568 22.441-24.21 25.161v13.87z" fill="#e1b7a7"/></g><g data-name="Group 116"><path data-name="Path 110" d="M1126.777 6220.39a2.855 2.855 0 01-.978-.192 2.479 2.479 0 01-1.53-3.058l-10.777-18.68 4.271-2.465 9.152 15.865c10.085-20.068 22.578-35.35 37.167-45.453l2.807 4.054c-14.623 10.124-27.086 25.818-37.056 46.642-.83 1.743-1.572 3.287-3.056 3.287z" fill="#040505"/></g><g data-name="Group 117"><path data-name="Path 111" d="M1147.028 6241.734l-129.976-31.188-.592-58.473 130.568-30.347zm-126.716-33.785l123.429 29.616v-111.7l-123.968 28.811z" fill="#040505"/></g><g data-name="Group 118"><path data-name="Path 112" d="M1044.737 6215.433s-.136-16.718-.2-33.452c-.035-8.368-.051-16.741-.026-23.03.048-11.751.048-11.751 1.481-12.064l.68 3.109-.34-1.555 1.537.362c-.339 2.263-.151 41.07.056 66.6z" fill="#040505"/></g><g data-name="Group 119"><path data-name="Rectangle 33" fill="#040505" d="M1101.855 6134.295h3.287v94.514h-3.287z"/></g></g></g></g></svg>