<svg xmlns="http://www.w3.org/2000/svg" height="126.96" width="727.195"><defs><clipPath id="a"><path transform="translate(1285 2040)" data-name="Rectangle 245" fill="#fff" stroke="#707070" d="M0 0h826v292H0z"/></clipPath><clipPath id="b"><path transform="translate(0 16.356)" d="M0 110.606h924.355V-16.356H0z" data-name="Path 4" fill="#e1b7a7"/></clipPath><clipPath id="c"><path data-name="Rectangle 2" fill="#e1b7a7" d="M0 0h1068.784v191.153H0z"/></clipPath></defs><g clip-path="url(#a)" transform="translate(-1285 -2106.58)"><g data-name="Group 97"><g clip-path="url(#b)" data-name="Group 11" transform="translate(1087.84 2106.578)" opacity=".656"><g data-name="Group 10"><g data-name="Group 9" opacity=".5"><g clip-path="url(#c)" data-name="Group 8" transform="translate(-72.216 -56.167)"><g data-name="Group 7"><path d="M72.216 183.13h924.355s-55.355-41.746-95.268-41.746c-39.913 0-48.981 15.828-72.571 15.828-35.482 0-62.969-101.043-155.489-101.043-145.941-.001-223.207 90.855-295.755 90.855-45.845 0-56.728-24.032-93.017-24.032-76.18.003-212.255 60.138-212.255 60.138" data-name="Path 3" fill="#e1b7a7"/></g></g></g></g></g></g></g></svg>