<svg xmlns="http://www.w3.org/2000/svg" width="120.951" height="90.451"><g data-name="Group 237" fill="#004876"><path data-name="Path 250" d="M34.614 35.767A34.58 34.58 0 0068.37 8.537l5.257 7.547 3.394-2.372L67.463 0 54.488 10.528l2.591 3.223 7.691-6.247a30.915 30.915 0 01-30.179 24.538h-.053A34.689 34.689 0 00-.001 66.626a1.862 1.862 0 003.724 0 30.938 30.938 0 0130.854-30.86z"/><path data-name="Path 251" d="M56.591 46.754a34.575 34.575 0 0033.743-27.24l5.267 7.55 3.391-2.375-9.565-13.7-12.972 10.525 2.588 3.22 7.695-6.247a31 31 0 01-30.182 24.544 34.679 34.679 0 00-34.578 34.575 1.861 1.861 0 103.721 0 30.94 30.94 0 0130.857-30.85z"/><path data-name="Path 252" d="M111.414 21.963l-13 10.528 2.591 3.224 7.695-6.247a30.965 30.965 0 01-30.189 24.551h-.006a34.675 34.675 0 00-34.578 34.572 1.862 1.862 0 003.724 0 30.952 30.952 0 0130.854-30.85 34.4 34.4 0 0033.779-27.231l5.258 7.547 3.407-2.381z"/></g></svg>