<svg xmlns="http://www.w3.org/2000/svg" width="89.638" height="89.642"><g data-name="Group 250"><g data-name="Group 239"><g data-name="Group 238"><path data-name="Path 253" d="M69.258 3.691a.891.891 0 10.167 1.774h15.483L56.901 33.436a.887.887 0 001.114 1.38.863.863 0 00.134-.135L86.18 6.71v15.483a.887.887 0 101.774.027V4.574a.887.887 0 00-.887-.887H69.425a.868.868 0 00-.167.004zm-52.408 12.1a.886.886 0 00-.887.884v58.058a.886.886 0 00.887.884h58.023a.886.886 0 00.887-.884V38.309a.887.887 0 00-1.774-.025v35.562H17.737V17.562h35.536a.886.886 0 00.024-1.771H16.85z" fill="#004876" stroke="#004876" stroke-miterlimit="10" stroke-width="2"/></g></g><g data-name="Group 249"><g data-name="Group 240"><path data-name="Rectangle 87" fill="#004876" stroke="#004876" stroke-miterlimit="10" stroke-width="2" d="M87.269 39.284h1.369v5.475h-1.369z"/></g><g data-name="Group 241"><path data-name="Rectangle 88" fill="#004876" stroke="#004876" stroke-miterlimit="10" stroke-width="2" d="M87.269 57.331h1.369v12.575h-1.369z"/></g><g data-name="Group 242"><path data-name="Path 254" d="M88.638 88.64h-6.159v-1.369h4.79v-4.788h1.369z" fill="#004876" stroke="#004876" stroke-miterlimit="10" stroke-width="2"/></g><g data-name="Group 243"><path data-name="Path 255" d="M71.719 88.642h-10.76v-1.369H71.72zm-21.519 0H39.44v-1.369h10.761zm-21.522 0H17.914v-1.369h10.761z" fill="#004876" stroke="#004876" stroke-miterlimit="10" stroke-width="2"/></g><g data-name="Group 244"><path data-name="Path 256" d="M7.159 88.64H1v-6.157h1.369v4.791H7.16z" fill="#004876" stroke="#004876" stroke-miterlimit="10" stroke-width="2"/></g><g data-name="Group 245"><path data-name="Path 257" d="M2.369 71.721H1V60.96h1.369zm0-21.519H1V39.441h1.369zm0-21.522H1V17.919h1.369z" fill="#004876" stroke="#004876" stroke-miterlimit="10" stroke-width="2"/></g><g data-name="Group 246"><path data-name="Path 258" d="M2.369 7.159H1V1h6.159v1.369H2.368z" fill="#004876" stroke="#004876" stroke-miterlimit="10" stroke-width="2"/></g><g data-name="Group 247"><path data-name="Rectangle 89" fill="#004876" stroke="#004876" stroke-miterlimit="10" stroke-width="2" d="M20.36 1h13.203v1.369H20.36z"/></g><g data-name="Group 248"><path data-name="Rectangle 90" fill="#004876" stroke="#004876" stroke-miterlimit="10" stroke-width="2" d="M46.766 1h5.475v1.369h-5.475z"/></g></g></g></svg>