<svg xmlns="http://www.w3.org/2000/svg" width="90.35" height="90.35"><g fill="#004876"><path data-name="Path 259" d="M13.987 45.179a31.189 31.189 0 1031.19-31.187 31.218 31.218 0 00-31.19 31.187zm31.19 26.139a26.145 26.145 0 1126.151-26.139 26.176 26.176 0 01-26.141 26.139z"/><path data-name="Rectangle 91" d="M42.58 0h5.189v11.231H42.58z"/><path data-name="Rectangle 92" d="M42.58 79.118h5.189v11.231H42.58z"/><path data-name="Rectangle 93" d="M67.344 19.341l7.938-7.944 3.67 3.668-7.937 7.944z"/><path data-name="Rectangle 94" d="M11.398 75.287l7.938-7.944 3.67 3.668-7.937 7.944z"/><path data-name="Rectangle 95" d="M79.118 42.58h11.231v5.189H79.118z"/><path data-name="Rectangle 96" d="M0 42.58h11.231v5.189H0z"/><path data-name="Rectangle 97" d="M67.343 71.013l3.67-3.67 7.94 7.94-3.67 3.67z"/><path data-name="Rectangle 98" d="M11.398 15.065l3.669-3.669 7.94 7.94-3.67 3.669z"/></g></svg>