<svg xmlns="http://www.w3.org/2000/svg" width="106.588" height="114.445"><g data-name="Group 262"><g data-name="Group 259"><g data-name="Group 258" fill="#004876"><path data-name="Path 264" d="M53.551 3.597A1.623 1.623 0 0052.385.568c-4.032 1.552-5.381 4.931-5.548 8.105-3.416-1.912-7.489-1.036-9.7.034a1.623 1.623 0 001.407 2.926c.635-.3 6.271-2.784 9.082 2.436l2.97-1.285c-.093-.293-2.313-7.159 2.955-9.187z"/><path data-name="Path 265" d="M47.425 14.663l-.2-.375c-2.6-4.846-7.887-2.514-8.474-2.235a2.089 2.089 0 01-2.781-.984 2.088 2.088 0 01.973-2.778 11.614 11.614 0 019.491-.345A8.846 8.846 0 0152.226.137a2.09 2.09 0 011.5 3.9c-4.708 1.812-2.9 7.92-2.677 8.611l.126.4zm-5.1-4.348a6.1 6.1 0 015.5 3.16l2.209-.954c-.46-1.7-1.608-7.449 3.349-9.354a1.122 1.122 0 00.642-.605 1.158 1.158 0 00-1.47-1.552c-4.092 1.571-5.117 5.05-5.254 7.694l-.041.743-.654-.36c-3.141-1.771-6.951-1.077-9.264.041a1.159 1.159 0 00-.538 1.545 1.141 1.141 0 00.657.594 1.186 1.186 0 00.887-.048 9.962 9.962 0 013.975-.904z"/></g></g><g data-name="Group 261"><g data-name="Group 260" fill="#004876"><path data-name="Path 266" d="M79.08 9.434c-3.954-1.756-7.293-.319-9.658 1.8-1.062-3.765-4.563-6.026-6.877-6.832a1.624 1.624 0 00-1.069 3.068c.264.093 6.442 2.321 4.7 8.143l3.008 1.192c.137-.275 3.427-6.7 8.581-4.407a1.623 1.623 0 101.318-2.967z"/><path data-name="Path 267" d="M69.41 17.395l-3.806-1.5.122-.412c1.63-5.436-4.155-7.486-4.4-7.572a2.087 2.087 0 111.37-3.943 11.631 11.631 0 016.951 6.468 8.859 8.859 0 019.617-1.43 2.088 2.088 0 11-1.693 3.817c-4.783-2.127-7.846 3.933-7.972 4.189zm-2.681-2.057l2.235.884c1.37-2.484 4.72-6.138 8.986-4.244a1.16 1.16 0 10.939-2.12c-4.014-1.775-7.192-.041-9.153 1.726l-.557.5-.2-.717c-.976-3.457-4.159-5.673-6.587-6.524a1.16 1.16 0 00-.765 2.191c2.322.796 6.272 3.532 5.102 8.304z"/></g></g></g><g data-name="Group 264"><g data-name="Group 263" fill="#004876"><path data-name="Path 268" d="M83.222 31.473a9.41 9.41 0 00-17.407 3.178 10.51 10.51 0 00-12.229 10.371 10.474 10.474 0 008.923 10.382 13.445 13.445 0 0018.6 7.512 10.248 10.248 0 002.774.4 10.766 10.766 0 009.5-5.625 10.567 10.567 0 002.072.208 10.674 10.674 0 005.295-19.943c.011-.193.019-.386.019-.576a9.767 9.767 0 00-17.545-5.9zm7.783-.609a6.487 6.487 0 016.4 7.724l.958 1.8a7.429 7.429 0 01-2.907 14.266 7.3 7.3 0 01-2.428-.423l-2.05.95a7.446 7.446 0 01-9.513 4.452l-1.311.122a10.194 10.194 0 01-14.841-6.279l-1.5-1.2a7.26 7.26 0 112.941-14.01l2.205-1.69a3.952 3.952 0 01-.022-.364 6.155 6.155 0 0112.279-.605l1.229 1.445 2.224-1.133A6.472 6.472 0 0191 30.864z"/><path data-name="Path 269" d="M75.164 64.769a13.953 13.953 0 01-13-8.953 10.97 10.97 0 011.93-21.77 10.688 10.688 0 011.337.085 9.879 9.879 0 0117.831-3.457 10.234 10.234 0 0117.961 6.7c0 .1 0 .211-.008.319a11.137 11.137 0 01-5.77 20.664 11.283 11.283 0 01-1.834-.156 11.286 11.286 0 01-9.74 5.573 10.482 10.482 0 01-2.722-.368 13.975 13.975 0 01-5.985 1.363zM64.098 34.975A10.059 10.059 0 0054.05 45.022a9.957 9.957 0 008.529 9.918l.275.045.089.26a12.964 12.964 0 0017.953 7.252l.159-.075.175.048a9.7 9.7 0 002.644.379 10.358 10.358 0 009.094-5.384l.163-.3.338.067a9.889 9.889 0 001.979.2 10.213 10.213 0 005.068-19.079l-.253-.141.015-.286a9.15 9.15 0 00.018-.549 9.307 9.307 0 00-9.3-9.3 9.2 9.2 0 00-7.412 3.673l-.419.561-.353-.608a8.948 8.948 0 00-16.55 3.026l-.078.457-.457-.078a10.4 10.4 0 00-1.629-.133zM75.164 61.52a10.677 10.677 0 01-10.263-7.779l-1.274-1.013a7.725 7.725 0 01.471-15.436 7.612 7.612 0 012.562.442l1.808-1.381v-.145a6.619 6.619 0 0113.189-.8l.895 1.058 1.712-.873a6.976 6.976 0 0113.719 1.79 6.843 6.843 0 01-.1 1.129l.8 1.518a7.89 7.89 0 01-3.238 15.086 7.792 7.792 0 01-2.4-.386l-1.715.791a7.915 7.915 0 01-9.929 4.582l-1.114.1a10.666 10.666 0 01-5.123 1.317zm-11.066-23.3a6.8 6.8 0 00-.278 13.586h.152l1.745 1.392.037.152a9.734 9.734 0 0014.169 5.993l.182-.056 1.4-.134.1.034a7 7 0 008.93-4.181l.067-.175 2.391-1.11.182.064a6.824 6.824 0 002.272.4 6.962 6.962 0 002.725-13.371l-.152-.067-1.11-2.091.03-.159a5.8 5.8 0 00.111-1.118A6.047 6.047 0 0085.11 36.02l-.052.208-2.744 1.4-1.559-1.838-.011-.145a5.69 5.69 0 00-11.351.564c0 .111.008.216.015.319l.026.26-2.622 2.005-.241-.1a6.739 6.739 0 00-2.473-.473z"/></g></g><g data-name="Group 266"><g data-name="Group 265" fill="#004876"><path data-name="Path 270" d="M26.401 89.301v-9.3h17.411a1.623 1.623 0 001.493-2.262l-7.609-17.812h2.447a1.626 1.626 0 001.489-2.276l-6.81-15.506h1.444a1.623 1.623 0 001.437-2.376L26.214 17.831a1.688 1.688 0 00-2.874 0L11.851 39.769a1.623 1.623 0 001.437 2.376h1.444l-6.81 15.506a1.626 1.626 0 001.489 2.276h2.447L4.25 77.739a1.626 1.626 0 001.5 2.262h17.407v9.3H5.748m19.03-67.22l8.808 16.817H15.97zm-6.5 20.062h13l6.383 14.537H11.897zm-2.889 17.782h18.774l7.188 16.828H8.206z"/><path data-name="Path 271" d="M23.62 89.765H5.745v-.928h16.947v-8.373H5.745a2.091 2.091 0 01-1.919-2.907l7.33-17.167H9.415a2.09 2.09 0 01-1.912-2.926l6.52-14.857h-.732a2.091 2.091 0 01-1.849-3.056L22.93 17.614a2.146 2.146 0 013.695 0l11.492 21.941a2.082 2.082 0 01-.067 2.046 2.061 2.061 0 01-1.782 1.006h-.73l6.521 14.857a2.087 2.087 0 01-1.912 2.926h-1.749l7.333 17.167a2.09 2.09 0 01-1.923 2.907H26.865v8.838h-.927v-9.766h17.871a1.157 1.157 0 001.066-1.615l-7.883-18.458h3.153a1.159 1.159 0 001.062-1.626l-7.092-16.156h2.154a1.157 1.157 0 001.025-1.7L25.809 18.044a1.228 1.228 0 00-2.057 0L12.263 39.981a1.162 1.162 0 001.029 1.7h2.154l-7.1 16.156a1.167 1.167 0 001.066 1.626h3.149L4.678 77.921a1.158 1.158 0 001.065 1.615h17.875zm18.436-12.547H7.501l7.582-17.756h19.394l.119.282zM8.908 76.29h31.74l-6.788-15.9H15.7zm29.46-19.145h-27.18l6.788-15.465h13.6l.123.279zm-25.758-.928h24.34l-5.978-13.609H18.585zm21.744-16.854H15.202l.36-.679 9.216-17.6zm-17.616-.927h16.08l-8.039-15.354z"/></g></g><g data-name="Group 268"><g data-name="Group 267" fill="#004876"><path data-name="Path 272" d="M72.949 113.788C43.069 83.919 2.02 96.737 1.615 96.87L.587 93.696c.427-.137 43.418-13.572 74.72 17.734z"/><path data-name="Path 273" d="M72.949 114.445l-.327-.327C42.764 84.272 2.164 97.175 1.76 97.318l-.442.145L0 93.397l.446-.142c.431-.141 43.741-13.6 75.192 17.849l.323.327zM23.315 93.497c14.407 0 33.511 3.736 49.634 19.638l1.7-1.7C45.337 82.495 5.807 92.684 1.173 94.009l.743 2.292a79.962 79.962 0 0121.399-2.804z"/></g></g><g data-name="Group 270"><g data-name="Group 269" fill="#004876"><path data-name="Path 274" d="M48.078 95.963l-2.358-2.362c.2-.2 20.816-20.33 54.268-10.761l-.914 3.2c-31.532-8.996-50.81 9.726-50.996 9.923z"/><path data-name="Path 275" d="M48.082 96.619l-3.012-3.011.316-.331c.2-.2 20.994-20.542 54.728-10.883l.446.126-1.166 4.1-.445-.126c-31.5-8.993-50.354 9.606-50.536 9.8zm-1.7-3.011l1.7 1.708c2.722-2.476 21.365-18 50.666-9.844l.661-2.313c-30.805-8.603-50.28 7.932-53.025 10.45z"/></g></g></svg>